<svg xmlns="http://www.w3.org/2000/svg" xmlns:xlink="http://www.w3.org/1999/xlink" width="428" height="991" viewBox="0 0 428 991">
  <defs>
    <linearGradient id="linear-gradient" x1="0.071" y1="0.232" x2="0.989" y2="1" gradientUnits="objectBoundingBox">
      <stop offset="0" stop-color="#5f72be"/>
      <stop offset="0" stop-color="#626ec0"/>
      <stop offset="1" stop-color="#9921e8"/>
    </linearGradient>
  </defs>
  <rect id="사각형_7" data-name="사각형 7" width="428" height="939" fill="url(#linear-gradient)"/>
  <g id="구성_요소_5_1" data-name="구성 요소 5 – 1" transform="translate(0 321)">
    <g id="구성_요소_2_1" data-name="구성 요소 2 – 1">
      <rect id="사각형_6" data-name="사각형 6" width="428" height="670" rx="71" fill="#fff"/>
    </g>
    <text id="담당자의_검토를_거쳐_3-4일_후에_처리됩니다._" data-name="담당자의 검토를 거쳐
3-4일 후에 처리됩니다. " transform="translate(34 213)" fill="#707070" font-size="21" font-family="SDGothicNeoa-aTh, 'Sandoll GothicNeo1 \30 1 Th'" letter-spacing="-0.075em"><tspan x="0" y="0">담당자의 검토를 거쳐 </tspan><tspan x="0" y="23">3-4일 후에 처리됩니다. </tspan></text>
    <text id="가로등의_상태를_말해주세요_" data-name="가로등의 상태를 말해주세요!" transform="translate(37 286)" fill="#707070" font-size="20" font-family="SDGothicNeoa-gBd, 'Sandoll GothicNeo1 \30 7 Bd'" letter-spacing="-0.075em"><tspan x="0" y="0">가로등의 상태를 말해주세요!</tspan></text>
    <text id="일련번호_:_안림01a_" data-name="일련번호  : 안림01a " transform="translate(22 571)" fill="#707070" font-size="15" font-family="SDGothicNeoa-cLt, 'Sandoll GothicNeo1 \30 3 Lt'" letter-spacing="-0.075em"><tspan x="0" y="0" xml:space="preserve">일련번호  : 안림01a </tspan></text>
    <text id="신고일_:_2021.08.07" data-name="신고일 : 2021.08.07" transform="translate(22 590)" fill="#707070" font-size="15" font-family="SDGothicNeoa-cLt, 'Sandoll GothicNeo1 \30 3 Lt'" letter-spacing="-0.075em"><tspan x="0" y="0">신고일 : 2021.08.07</tspan></text>
    <text id="더욱_빠른_수리가_가능합니다." data-name="더욱 빠른 수리가 가능합니다." transform="translate(37 306)" fill="#707070" font-size="12" font-family="SDGothicNeoa-cLt, 'Sandoll GothicNeo1 \30 3 Lt'" letter-spacing="-0.081em"><tspan x="0" y="0">더욱 빠른 수리가 가능합니다.</tspan></text>
    <text id="가로등_고장_신고_접수가_완료되었습니다." data-name="가로등 고장 신고 접수가
완료되었습니다." transform="translate(31 133)" fill="#4a4a4a" font-size="35" font-family="SDGothicNeoaUni-iHv, 'Sandoll GothicNeo1Unicode \30 9 Hv'" letter-spacing="-0.078em"><tspan x="0" y="0">가로등 고장 신고 접수가</tspan><tspan x="0" y="38">완료되었습니다.</tspan></text>
    <line id="선_4" data-name="선 4" x2="352.5" transform="translate(35 252.7)" fill="none" stroke="#707070" stroke-linecap="round" stroke-width="1"/>
    <rect id="사각형_1" data-name="사각형 1" width="164" height="35" rx="17.5" transform="translate(37 334)" fill="#6a64c6"/>
    <path id="패스_17" data-name="패스 17" d="M17.5,0h129a17.5,17.5,0,0,1,0,35H17.5a17.5,17.5,0,0,1,0-35Z" transform="translate(35 389.48)" fill="#784fd0"/>
    <rect id="사각형_5" data-name="사각형 5" width="164" height="35" rx="17.5" transform="translate(35 446)" fill="#8d33df"/>
    <text id="밝기가_약해요_" data-name="밝기가 약해요!" transform="translate(51 355)" fill="#fff" font-size="12" font-family="SDGothicNeoa-hExBd, 'Sandoll GothicNeo1 \30 8 Eb'" letter-spacing="-0.081em"><tspan x="0" y="0">밝기가 약해요!</tspan></text>
    <text id="가로등이_들어오지_않아요_" data-name="가로등이 들어오지 않아요!" transform="translate(49 411)" fill="#fff" font-size="12" font-family="SDGothicNeoa-hExBd, 'Sandoll GothicNeo1 \30 8 Eb'" letter-spacing="-0.081em"><tspan x="0" y="0">가로등이 들어오지 않아요!</tspan></text>
    <text id="깜빡거려요_" data-name="깜빡거려요!" transform="translate(51 468)" fill="#fff" font-size="12" font-family="SDGothicNeoa-hExBd, 'Sandoll GothicNeo1 \30 8 Eb'" letter-spacing="-0.081em"><tspan x="0" y="0">깜빡거려요!</tspan></text>
    <g id="check_circle_black_24dp" transform="translate(28 56.039)">
      <path id="패스_18" data-name="패스 18" d="M0,0H41.242V41.242H0Z" fill="none"/>
      <path id="패스_19" data-name="패스 19" d="M19.184,2A17.184,17.184,0,1,0,36.368,19.184,17.19,17.19,0,0,0,19.184,2Zm0,30.931A13.747,13.747,0,1,1,32.931,19.184,13.765,13.765,0,0,1,19.184,32.931Zm7.887-21.343L15.747,22.913,11.3,18.479,8.874,20.9l6.874,6.874L29.494,14.029Z" transform="translate(1.437 1.437)" fill="#6a64c6"/>
    </g>
  </g>
</svg>
 
